<mxfile host="app.diagrams.net" modified="2021-05-31T17:06:35.255Z" agent="5.0 (Windows NT 10.0; Win64; x64) AppleWebKit/537.36 (KHTML, like Gecko) Chrome/91.0.4472.77 Safari/537.36" etag="QaNgcGFR3BOv54FTomJ1" version="14.7.3" type="github">
  <diagram id="C5RBs43oDa-KdzZeNtuy" name="Flowchart">
    <mxGraphModel dx="1038" dy="579" grid="1" gridSize="10" guides="1" tooltips="1" connect="1" arrows="1" fold="1" page="1" pageScale="1" pageWidth="827" pageHeight="1169" math="0" shadow="0">
      <root>
        <mxCell id="WIyWlLk6GJQsqaUBKTNV-0" />
        <mxCell id="WIyWlLk6GJQsqaUBKTNV-1" parent="WIyWlLk6GJQsqaUBKTNV-0" />
        <mxCell id="60__LU3BUfGossuBuQVd-0" style="edgeStyle=orthogonalEdgeStyle;rounded=0;orthogonalLoop=1;jettySize=auto;html=1;" edge="1" parent="WIyWlLk6GJQsqaUBKTNV-1" source="60__LU3BUfGossuBuQVd-1" target="60__LU3BUfGossuBuQVd-5">
          <mxGeometry relative="1" as="geometry" />
        </mxCell>
        <mxCell id="60__LU3BUfGossuBuQVd-52" style="edgeStyle=orthogonalEdgeStyle;rounded=0;orthogonalLoop=1;jettySize=auto;html=1;" edge="1" parent="WIyWlLk6GJQsqaUBKTNV-1" source="60__LU3BUfGossuBuQVd-1" target="60__LU3BUfGossuBuQVd-51">
          <mxGeometry relative="1" as="geometry" />
        </mxCell>
        <mxCell id="60__LU3BUfGossuBuQVd-1" value="Nhấn tab &quot;Đơn Hàng&quot;" style="rounded=0;whiteSpace=wrap;html=1;fontSize=12;glass=0;strokeWidth=1;shadow=0;" vertex="1" parent="WIyWlLk6GJQsqaUBKTNV-1">
          <mxGeometry x="330" y="140" width="140" height="40" as="geometry" />
        </mxCell>
        <mxCell id="60__LU3BUfGossuBuQVd-2" style="edgeStyle=orthogonalEdgeStyle;rounded=0;orthogonalLoop=1;jettySize=auto;html=1;entryX=0.5;entryY=0;entryDx=0;entryDy=0;" edge="1" parent="WIyWlLk6GJQsqaUBKTNV-1" source="60__LU3BUfGossuBuQVd-3" target="60__LU3BUfGossuBuQVd-1">
          <mxGeometry relative="1" as="geometry" />
        </mxCell>
        <mxCell id="60__LU3BUfGossuBuQVd-3" value="Bắt đầu" style="strokeWidth=2;html=1;shape=mxgraph.flowchart.start_1;whiteSpace=wrap;" vertex="1" parent="WIyWlLk6GJQsqaUBKTNV-1">
          <mxGeometry x="350" y="20" width="100" height="60" as="geometry" />
        </mxCell>
        <mxCell id="60__LU3BUfGossuBuQVd-4" value="" style="edgeStyle=orthogonalEdgeStyle;rounded=0;orthogonalLoop=1;jettySize=auto;html=1;" edge="1" parent="WIyWlLk6GJQsqaUBKTNV-1" source="60__LU3BUfGossuBuQVd-5" target="60__LU3BUfGossuBuQVd-39">
          <mxGeometry relative="1" as="geometry" />
        </mxCell>
        <mxCell id="60__LU3BUfGossuBuQVd-5" value="Nhấn tab &quot;Order In Process&quot;" style="rounded=0;whiteSpace=wrap;html=1;" vertex="1" parent="WIyWlLk6GJQsqaUBKTNV-1">
          <mxGeometry x="140" y="230" width="120" height="60" as="geometry" />
        </mxCell>
        <mxCell id="60__LU3BUfGossuBuQVd-47" style="edgeStyle=orthogonalEdgeStyle;rounded=0;orthogonalLoop=1;jettySize=auto;html=1;" edge="1" parent="WIyWlLk6GJQsqaUBKTNV-1" source="60__LU3BUfGossuBuQVd-53" target="60__LU3BUfGossuBuQVd-15">
          <mxGeometry relative="1" as="geometry">
            <mxPoint x="200" y="480" as="sourcePoint" />
            <Array as="points">
              <mxPoint x="200" y="490" />
              <mxPoint x="200" y="490" />
            </Array>
          </mxGeometry>
        </mxCell>
        <mxCell id="60__LU3BUfGossuBuQVd-13" value="OrderDetailScreen" style="ellipse;whiteSpace=wrap;html=1;rounded=0;" vertex="1" parent="WIyWlLk6GJQsqaUBKTNV-1">
          <mxGeometry x="140" y="720" width="120" height="80" as="geometry" />
        </mxCell>
        <mxCell id="60__LU3BUfGossuBuQVd-49" value="" style="edgeStyle=orthogonalEdgeStyle;rounded=0;orthogonalLoop=1;jettySize=auto;html=1;" edge="1" parent="WIyWlLk6GJQsqaUBKTNV-1" source="60__LU3BUfGossuBuQVd-15" target="60__LU3BUfGossuBuQVd-48">
          <mxGeometry relative="1" as="geometry" />
        </mxCell>
        <mxCell id="60__LU3BUfGossuBuQVd-15" value="Nhấn vào đơn hàng" style="rounded=0;whiteSpace=wrap;html=1;" vertex="1" parent="WIyWlLk6GJQsqaUBKTNV-1">
          <mxGeometry x="140" y="510" width="120" height="60" as="geometry" />
        </mxCell>
        <mxCell id="60__LU3BUfGossuBuQVd-41" value="" style="edgeStyle=orthogonalEdgeStyle;rounded=0;orthogonalLoop=1;jettySize=auto;html=1;" edge="1" parent="WIyWlLk6GJQsqaUBKTNV-1" source="60__LU3BUfGossuBuQVd-39" target="60__LU3BUfGossuBuQVd-53">
          <mxGeometry relative="1" as="geometry">
            <mxPoint x="200" y="420" as="targetPoint" />
            <Array as="points">
              <mxPoint x="200" y="450" />
            </Array>
          </mxGeometry>
        </mxCell>
        <mxCell id="60__LU3BUfGossuBuQVd-39" value="gọi api /ordering.api/api/v1/Orders/GetOrdersOfShop/.../10400/..." style="rounded=0;whiteSpace=wrap;html=1;" vertex="1" parent="WIyWlLk6GJQsqaUBKTNV-1">
          <mxGeometry x="40" y="320" width="320" height="60" as="geometry" />
        </mxCell>
        <mxCell id="60__LU3BUfGossuBuQVd-50" value="" style="edgeStyle=orthogonalEdgeStyle;rounded=0;orthogonalLoop=1;jettySize=auto;html=1;" edge="1" parent="WIyWlLk6GJQsqaUBKTNV-1" source="60__LU3BUfGossuBuQVd-48" target="60__LU3BUfGossuBuQVd-13">
          <mxGeometry relative="1" as="geometry" />
        </mxCell>
        <mxCell id="60__LU3BUfGossuBuQVd-48" value="gọi api&amp;nbsp;/ordering.api/api/v1/Orders/$orderNumber" style="rounded=0;whiteSpace=wrap;html=1;" vertex="1" parent="WIyWlLk6GJQsqaUBKTNV-1">
          <mxGeometry x="60" y="610" width="280" height="60" as="geometry" />
        </mxCell>
        <mxCell id="60__LU3BUfGossuBuQVd-73" value="" style="edgeStyle=orthogonalEdgeStyle;rounded=0;orthogonalLoop=1;jettySize=auto;html=1;" edge="1" parent="WIyWlLk6GJQsqaUBKTNV-1" source="60__LU3BUfGossuBuQVd-51" target="60__LU3BUfGossuBuQVd-69">
          <mxGeometry relative="1" as="geometry" />
        </mxCell>
        <mxCell id="60__LU3BUfGossuBuQVd-51" value="Nhấn tab &quot;Order Processed&quot;" style="rounded=0;whiteSpace=wrap;html=1;" vertex="1" parent="WIyWlLk6GJQsqaUBKTNV-1">
          <mxGeometry x="560" y="230" width="120" height="60" as="geometry" />
        </mxCell>
        <mxCell id="60__LU3BUfGossuBuQVd-53" value="OrderManagementScreen" style="ellipse;whiteSpace=wrap;html=1;rounded=0;" vertex="1" parent="WIyWlLk6GJQsqaUBKTNV-1">
          <mxGeometry x="112" y="410" width="170" height="70" as="geometry" />
        </mxCell>
        <mxCell id="60__LU3BUfGossuBuQVd-64" style="edgeStyle=orthogonalEdgeStyle;rounded=0;orthogonalLoop=1;jettySize=auto;html=1;" edge="1" parent="WIyWlLk6GJQsqaUBKTNV-1" source="60__LU3BUfGossuBuQVd-72" target="60__LU3BUfGossuBuQVd-67">
          <mxGeometry relative="1" as="geometry">
            <mxPoint x="620" y="480" as="sourcePoint" />
            <Array as="points">
              <mxPoint x="620" y="490" />
              <mxPoint x="620" y="490" />
            </Array>
          </mxGeometry>
        </mxCell>
        <mxCell id="60__LU3BUfGossuBuQVd-75" value="" style="edgeStyle=orthogonalEdgeStyle;rounded=0;orthogonalLoop=1;jettySize=auto;html=1;" edge="1" parent="WIyWlLk6GJQsqaUBKTNV-1" source="60__LU3BUfGossuBuQVd-65" target="60__LU3BUfGossuBuQVd-74">
          <mxGeometry relative="1" as="geometry" />
        </mxCell>
        <mxCell id="60__LU3BUfGossuBuQVd-65" value="OrderDetailScreen" style="ellipse;whiteSpace=wrap;html=1;rounded=0;" vertex="1" parent="WIyWlLk6GJQsqaUBKTNV-1">
          <mxGeometry x="560" y="720" width="120" height="80" as="geometry" />
        </mxCell>
        <mxCell id="60__LU3BUfGossuBuQVd-66" value="" style="edgeStyle=orthogonalEdgeStyle;rounded=0;orthogonalLoop=1;jettySize=auto;html=1;" edge="1" parent="WIyWlLk6GJQsqaUBKTNV-1" source="60__LU3BUfGossuBuQVd-67" target="60__LU3BUfGossuBuQVd-71">
          <mxGeometry relative="1" as="geometry" />
        </mxCell>
        <mxCell id="60__LU3BUfGossuBuQVd-67" value="Nhấn vào đơn hàng" style="rounded=0;whiteSpace=wrap;html=1;" vertex="1" parent="WIyWlLk6GJQsqaUBKTNV-1">
          <mxGeometry x="560" y="510" width="120" height="60" as="geometry" />
        </mxCell>
        <mxCell id="60__LU3BUfGossuBuQVd-68" value="" style="edgeStyle=orthogonalEdgeStyle;rounded=0;orthogonalLoop=1;jettySize=auto;html=1;" edge="1" parent="WIyWlLk6GJQsqaUBKTNV-1" source="60__LU3BUfGossuBuQVd-69" target="60__LU3BUfGossuBuQVd-72">
          <mxGeometry relative="1" as="geometry">
            <mxPoint x="620" y="420" as="targetPoint" />
            <Array as="points">
              <mxPoint x="620" y="450" />
            </Array>
          </mxGeometry>
        </mxCell>
        <mxCell id="60__LU3BUfGossuBuQVd-69" value="gọi api /ordering.api/api/v1/Orders/GetOrdersOfShop/.../10404/..." style="rounded=0;whiteSpace=wrap;html=1;" vertex="1" parent="WIyWlLk6GJQsqaUBKTNV-1">
          <mxGeometry x="460" y="320" width="320" height="60" as="geometry" />
        </mxCell>
        <mxCell id="60__LU3BUfGossuBuQVd-70" value="" style="edgeStyle=orthogonalEdgeStyle;rounded=0;orthogonalLoop=1;jettySize=auto;html=1;" edge="1" parent="WIyWlLk6GJQsqaUBKTNV-1" source="60__LU3BUfGossuBuQVd-71" target="60__LU3BUfGossuBuQVd-65">
          <mxGeometry relative="1" as="geometry" />
        </mxCell>
        <mxCell id="60__LU3BUfGossuBuQVd-71" value="gọi api&amp;nbsp;/ordering.api/api/v1/Orders/$orderNumber" style="rounded=0;whiteSpace=wrap;html=1;" vertex="1" parent="WIyWlLk6GJQsqaUBKTNV-1">
          <mxGeometry x="480" y="610" width="280" height="60" as="geometry" />
        </mxCell>
        <mxCell id="60__LU3BUfGossuBuQVd-72" value="OrderManagementScreen" style="ellipse;whiteSpace=wrap;html=1;rounded=0;" vertex="1" parent="WIyWlLk6GJQsqaUBKTNV-1">
          <mxGeometry x="532" y="410" width="170" height="70" as="geometry" />
        </mxCell>
        <mxCell id="60__LU3BUfGossuBuQVd-77" value="" style="edgeStyle=orthogonalEdgeStyle;rounded=0;orthogonalLoop=1;jettySize=auto;html=1;" edge="1" parent="WIyWlLk6GJQsqaUBKTNV-1" source="60__LU3BUfGossuBuQVd-74" target="60__LU3BUfGossuBuQVd-76">
          <mxGeometry relative="1" as="geometry" />
        </mxCell>
        <mxCell id="60__LU3BUfGossuBuQVd-74" value="Nhấn vào Button &quot;Rating&quot;" style="rounded=0;whiteSpace=wrap;html=1;" vertex="1" parent="WIyWlLk6GJQsqaUBKTNV-1">
          <mxGeometry x="545" y="840" width="150" height="60" as="geometry" />
        </mxCell>
        <mxCell id="60__LU3BUfGossuBuQVd-79" value="" style="edgeStyle=orthogonalEdgeStyle;rounded=0;orthogonalLoop=1;jettySize=auto;html=1;" edge="1" parent="WIyWlLk6GJQsqaUBKTNV-1" source="60__LU3BUfGossuBuQVd-76" target="60__LU3BUfGossuBuQVd-78">
          <mxGeometry relative="1" as="geometry" />
        </mxCell>
        <mxCell id="60__LU3BUfGossuBuQVd-76" value="RatingOrderForm" style="ellipse;whiteSpace=wrap;html=1;rounded=0;" vertex="1" parent="WIyWlLk6GJQsqaUBKTNV-1">
          <mxGeometry x="560" y="930" width="120" height="80" as="geometry" />
        </mxCell>
        <mxCell id="60__LU3BUfGossuBuQVd-81" value="" style="edgeStyle=orthogonalEdgeStyle;rounded=0;orthogonalLoop=1;jettySize=auto;html=1;" edge="1" parent="WIyWlLk6GJQsqaUBKTNV-1" source="60__LU3BUfGossuBuQVd-78" target="60__LU3BUfGossuBuQVd-80">
          <mxGeometry relative="1" as="geometry" />
        </mxCell>
        <mxCell id="60__LU3BUfGossuBuQVd-78" value="Nhập các trường thông tin" style="rounded=0;whiteSpace=wrap;html=1;" vertex="1" parent="WIyWlLk6GJQsqaUBKTNV-1">
          <mxGeometry x="540" y="1050" width="160" height="60" as="geometry" />
        </mxCell>
        <mxCell id="60__LU3BUfGossuBuQVd-83" value="" style="edgeStyle=orthogonalEdgeStyle;rounded=0;orthogonalLoop=1;jettySize=auto;html=1;" edge="1" parent="WIyWlLk6GJQsqaUBKTNV-1" source="60__LU3BUfGossuBuQVd-80" target="60__LU3BUfGossuBuQVd-82">
          <mxGeometry relative="1" as="geometry" />
        </mxCell>
        <mxCell id="60__LU3BUfGossuBuQVd-80" value="Nhấp button &quot;Submit&quot;" style="rounded=0;whiteSpace=wrap;html=1;" vertex="1" parent="WIyWlLk6GJQsqaUBKTNV-1">
          <mxGeometry x="540" y="1150" width="160" height="60" as="geometry" />
        </mxCell>
        <mxCell id="60__LU3BUfGossuBuQVd-82" value="Thực hiện gửi đơn đánh giá lên server" style="rounded=0;whiteSpace=wrap;html=1;" vertex="1" parent="WIyWlLk6GJQsqaUBKTNV-1">
          <mxGeometry x="540" y="1250" width="160" height="60" as="geometry" />
        </mxCell>
      </root>
    </mxGraphModel>
  </diagram>
</mxfile>
